<svg xmlns="http://www.w3.org/2000/svg"><symbol id="cart" viewBox="0 0 216 216"><path fill="#fff" d="M70 139.5h114.2a6.4 6.4 0 0 0 6.1-4.6l25.2-88.2a6.3 6.3 0 0 0-6.1-8H55.5L51 18.4a6.4 6.4 0 0 0-6.2-4.9H7a6.3 6.3 0 0 0 0 12.6h32.7l22.8 102.4a18.9 18.9 0 0 0 7.5 36.2h114.2a6.3 6.3 0 1 0 0-12.6H70a6.3 6.3 0 1 1 0-12.6zm131.1-88.2l-21.6 75.6H75.1L58.3 51.3zM63.7 183.6a18.9 18.9 0 1 0 18.9-18.9 18.9 18.9 0 0 0-18.9 18.9zm18.9-6.3a6.3 6.3 0 1 1-6.3 6.3 6.3 6.3 0 0 1 6.3-6.3zm70.1 6.3a18.9 18.9 0 1 0 18.9-18.9 18.9 18.9 0 0 0-18.9 18.9zm18.9-6.3a6.3 6.3 0 1 1 0 12.6 6.3 6.3 0 1 1 0-12.6z"/></symbol><symbol id="citizen-icon" viewBox="0 0 218.8 218.8"><rect width="218.8" height="218.77" fill="#fff" rx="60"/><g fill-rule="evenodd"><path fill="#fff" d="M28.1 27.1h162.6v162.7H28.1z"/><path fill="#231f20" d="M161.9 117.1c.7 0 2 .2 2.3-.4a2 2 0 0 0 .4-1.3v-14.8c0-.6.1-1-.2-1.4s-2.1-.6-2.7-.6v-1.5h6.1l11.1 14.9V99.9a1.6 1.6 0 0 0-.9-1.2l-2.3-.2v-1.4h7.7v1.4c-.8 0-2-.1-2.4.4a1.2 1.2 0 0 0-.5 1.2v18.5h-1.9l-12.3-17.8v14.6a1.7 1.7 0 0 0 .7 1.3 4.5 4.5 0 0 0 2.3.4v1.5h-7.6V117zm-2-19.9v5.3h-1.6c0-1.1 0-2.4-.7-3a4.9 4.9 0 0 0-2.9-.5h-6.9v7.2h5.3c.7 0 1.2-.6 1.3-1.5v-1.9h1.8v8.4h-1.7a6.5 6.5 0 0 0-.2-2.4c-.4-.5-.3-.7-1.1-.7h-5.5v8.8h8.4a2.4 2.4 0 0 0 2-.7c.6-.5.6-2.1.5-3.6h1.7v6.1h-18.5v-1.5c.7 0 2.2 0 2.5-.5a2.6 2.6 0 0 0 .4-1.5v-14.1a2.3 2.3 0 0 0-.5-1.8 5.3 5.3 0 0 0-2.4-.6v-1.3l18.1-.2zm-36.5.2h16.5V99l-12.5 18h9.4c2.4 0 2.2-2 2.5-4.1h1.5v6h-17.4v-1.6l12.4-18h-8.7a2 2 0 0 0-2.1 1.7l-.2 2.1h-1.4v-5.7zm-30.7 0l6.7.2h5.5l5.9-.2v5.7a3.3 3.3 0 0 1-1.4 0 5.6 5.6 0 0 0-.8-3.3 2 2 0 0 0-1.8-.7h-3.6v16.3a3.3 3.3 0 0 0 .7 1.6c.3.4 2.5.3 3.1.4v1.5H96.7v-1.4c.6 0 2.7 0 2.9-.4a3.1 3.1 0 0 0 .9-1.7V99.1h-3.9a2.3 2.3 0 0 0-2 1.1c-.4.6-.4 2.3-.5 3h-1.4zm-1.5 1.5c-.8 0-2.5 0-2.8.5a3.3 3.3 0 0 0-.5 1.6v14.4a3 3 0 0 0 .5 1.6c.3.4 2.1.5 2.9.6v1.3h-9.7v-1.3c.8-.1 2.7-.2 3-.7a2.6 2.6 0 0 0 .4-1.5V101a2 2 0 0 0-.5-1.6c-.3-.4-2.3-.5-3-.5v-1.4h9.7v1.4zm30.8 0c-.7 0-2.5 0-2.7.5a3.5 3.5 0 0 0-.6 1.6v14.4a3 3 0 0 0 .5 1.6c.3.4 2.1.5 2.9.6v1.3h-9.7v-1.3c.8-.1 2.7-.2 3-.7a2.7 2.7 0 0 0 .5-1.5V101a3.3 3.3 0 0 0-.5-1.6c-.4-.4-2.4-.5-3.1-.5v-1.4h9.7v1.4zm-42.5 4.2a9.2 9.2 0 0 0-1.7-2.9c-3.2-2.6-7.5-2-10.3 1.3s-2.1 3.7-2.1 6.9a10.6 10.6 0 0 0 2.5 7.3 7.4 7.4 0 0 0 9.9 1.2 17.8 17.8 0 0 0 2.1-2.7h1.5l-.9 3.6a13.2 13.2 0 0 1-6.9 2.3 12.3 12.3 0 0 1-8.9-3.4 11.8 11.8 0 0 1-3.1-8 11.4 11.4 0 0 1 10.8-11.9h.2a24.9 24.9 0 0 1 4.6.5 10.5 10.5 0 0 0 3.6.6v5.3h-1.3z"/><path fill="#ec1c24" d="M48.4 103.1l-.3 3.8h3.1l-2.8 2-1.7 1.1a.6.6 0 0 1-.8 0 .7.7 0 0 1-.2-.9l2.7-6.3v.4zm0-6.1a11.6 11.6 0 0 1 0 23h-1.6a11.6 11.6 0 0 1 0-23.2z"/></g></symbol><symbol id="citizen" viewBox="0 0 216 216"><path fill="#231f20" fill-rule="evenodd" d="M169.9 118.6c.8 0 2.4.2 2.8-.5a3 3 0 0 0 .5-1.5V99a2.5 2.5 0 0 0-.4-1.7c-.7-1.1-2.4-.7-3.1-.7v-1.7h7.3l13.1 17.6V98.2a2.3 2.3 0 0 0-1.1-1.5 12.4 12.4 0 0 0-2.7-.1v-1.7h9.1v1.6c-.9.1-2.3-.1-2.9.5a1.6 1.6 0 0 0-.5 1.4v22h-2.3l-14.4-21.1v17.2a2.3 2.3 0 0 0 .8 1.6c.9.6 2.2.4 2.8.5v1.8h-9.1v-1.8zM167.6 95v6.3h-1.9c-.1-1.4-.1-2.9-.9-3.6s-1.8-.6-3.3-.6h-8.3v8.6h6.3c.8 0 1.4-.7 1.6-1.8v-2.2h2.2v10h-2c0-1.1.1-2.4-.3-2.9s-.4-.8-1.2-.8h-6.5v10.4h9.9a3.3 3.3 0 0 0 2.4-.8c.6-.6.6-2.6.5-4.2h2.1v7.1h-22.1v-1.8c.8-.1 2.6-.1 3-.6a3.4 3.4 0 0 0 .4-1.9V99.5a2.8 2.8 0 0 0-.6-2.1 7.3 7.3 0 0 0-2.8-.6v-1.7zm-43.3.1h19.5v2L129 118.4h11.2c2.8-.1 2.6-2.5 2.9-5h1.8v7.2h-20.6v-1.9L139 97.3h-10.2a2.6 2.6 0 0 0-2.7 2.1v2.6h-1.7v-6.9zm-36.4.1l7.9.3h6.6l7-.3v6.8h-1.7c-.1-.8.1-2.5-1-3.9a2.2 2.2 0 0 0-2.1-.9h-4.2v19.3c0 .9.6 1.4.8 1.9s3 .4 3.7.5v1.8H92.7v-1.6c.7-.1 3.2 0 3.4-.5s1.1-1.2 1.1-2.1V97.2h-4.7a2.8 2.8 0 0 0-2.3 1.3c-.5.7-.5 2.8-.7 3.6h-1.6v-6.9zm-1.8 1.7c-.9.1-2.9 0-3.2.7a3.2 3.2 0 0 0-.7 1.9v17a3.6 3.6 0 0 0 .6 1.9c.3.5 2.5.7 3.4.8v1.5H74.8v-1.5c.9-.1 3.2-.3 3.5-.9a3.2 3.2 0 0 0 .5-1.8v-17a2.9 2.9 0 0 0-.6-1.9c-.3-.5-2.7-.6-3.6-.7v-1.5h11.5v1.5zm36.6 0c-1 .1-3 0-3.3.7a3.9 3.9 0 0 0-.6 1.9v17a3.6 3.6 0 0 0 .5 1.9c.4.5 2.6.7 3.4.8v1.5h-11.4v-1.5c.9-.1 3.2-.3 3.5-.9a3.2 3.2 0 0 0 .6-1.8v-17a3.6 3.6 0 0 0-.6-1.9c-.4-.5-2.8-.6-3.6-.7v-1.5h11.5v1.5zM72.2 102a8.1 8.1 0 0 0-2-3.5c-3.8-3.1-8.8-2.3-12.1 1.5-1.9 2.2-2.5 4.5-2.5 8.3s1 6.6 2.9 8.6a8.6 8.6 0 0 0 11.7 1.4c1.2-.8 1.7-2.3 2.6-3.2h1.7l-1 4.3a15.8 15.8 0 0 1-8.3 2.7c-4.1 0-8.2-1.5-10.5-4a13.8 13.8 0 0 1-3.6-9.5c0-4.3 1.3-7.8 3.9-10.1a13.4 13.4 0 0 1 9-3.9 25.1 25.1 0 0 1 5.5.6 12.3 12.3 0 0 0 4.2.7v6.3z"/><path fill="#ec1c24" fill-rule="evenodd" d="M35.4 102l-.3 4.4h3.6l-3.3 2.4-2 1.4a.8.8 0 0 1-1 0 .7.7 0 0 1-.2-1.1l3.2-7.4v.5zm0-7.3a13.8 13.8 0 0 1 0 27.3h-1.9a13.8 13.8 0 0 1 0-27.5z"/></symbol><symbol id="facebook" viewBox="0 0 216 216"><circle cx="108" cy="108" r="108" fill="#ad974f"/><path fill="#231f20" d="M143.1 33.2h-23.9c-14.2 0-30 5.9-30 26.5.1 7.2 0 14 0 21.8H72.8v26.1h16.9v75.2h31.1v-75.7h20.6l1.8-25.7h-22.9V66.6c0-8.1 8.5-7.6 9-7.6h13.8V33.2z"/></symbol><symbol id="gucci-icon" viewBox="0 0 218.8 218.8"><rect width="218.8" height="218.77" fill="#fff" rx="60"/><g fill-rule="evenodd"><path fill="#fff" d="M51.4 51.3H167v115.6H51.4z"/><path fill="#231f20" d="M66.7 76.5c-3.2 0-12.2-2.1-12.2-11.6s8.6-11.7 12-11.7 7.2.7 9.3 2.1v4.5a.4.4 0 1 1-.8 0 7.3 7.3 0 0 0-7.1-5.3c-5.5.2-9.2 4.5-9.2 10.2s3.6 10.5 9 10.4a8 8 0 0 0 4.5-1.4v-4.9a1.6 1.6 0 0 0-1.4-1.9c-.1 0-.2-.1-.3 0a.4.4 0 0 1-.4-.4c0-.3.1-.4.4-.5h7.4a.4.4 0 0 1 0 .9 1.5 1.5 0 0 0-1.7 1.6v5.4c-1.8 1.6-6.2 2.6-9.5 2.6zm50.7 0a19.9 19.9 0 0 0 9.7-3.4v-4.2c0-.5-.4-.6-.6.1s-2.8 6.1-8.2 6.2-9-4.8-9-10.5 3.7-10.2 9.2-10.3a7.5 7.5 0 0 1 7.2 5.4c0 .5.5.5.5 0v-4.5a16.9 16.9 0 0 0-9.1-2.3c-3.4 0-12 2.3-12 11.9s9 11.6 12.3 11.6zm45.7-1.4a1.8 1.8 0 0 1-1.8-1.6.4.4 0 0 1 .1-.3V56.3a1.6 1.6 0 0 1 1.4-1.9h.3c.8 0 .8-.7 0-.7h-7.5c-.8 0-.8.7 0 .7a1.8 1.8 0 0 1 1.8 1.7.4.4 0 0 1-.1.3v16.8a1.6 1.6 0 0 1-1.4 1.9h-.3a.6.6 0 1 0 0 1.1h7.5a.6.6 0 1 0 0-1.1zM80.6 54.3a1.7 1.7 0 0 1 1.8 1.7v11.4a9.1 9.1 0 0 0 9.1 9.2h.4a9.3 9.3 0 0 0 9.6-9.2V56.3a1.7 1.7 0 0 1 1.4-1.9h.3c.8 0 .8-.7 0-.7h-5.1c-.8 0-.8.7 0 .7a1.8 1.8 0 0 1 1.8 1.6v11.9c0 3.8-3 7.6-6.7 7.6a6.9 6.9 0 0 1-6.9-6.8V56.3a1.7 1.7 0 0 1 1.5-1.9h.3c.8 0 .8-.7 0-.7h-7.5c-.8 0-.8.7 0 .7zm77.1 78.1a32.8 32.8 0 0 1-32.8 32.8 33.2 33.2 0 0 1-14.5-3.4 33.3 33.3 0 0 1-14.6 3.4 32.8 32.8 0 0 1 0-65.6 33.3 33.3 0 0 1 14.6 3.4 33.2 33.2 0 0 1 14.5-3.4 32.8 32.8 0 0 1 32.8 32.8zm-6.5 0a26.3 26.3 0 0 0-34.2-25.1 32.8 32.8 0 0 1 10.5 16.3h-6.8a27 27 0 0 0-10.3-13.2 25.9 25.9 0 0 0-10.3 13.2h-6.8a32.3 32.3 0 0 1 10.5-16.3 27.2 27.2 0 0 0-8-1.2 26.3 26.3 0 0 0 0 52.6 26.1 26.1 0 0 0 7.9-1.2A32.6 32.6 0 0 1 92.2 135h15.6v6.5h-7.6a26 26 0 0 0 10.2 12.7 25.9 25.9 0 0 0 10.1-12.7h-7.6V135h15.6a32.7 32.7 0 0 1-11.6 22.5 27.2 27.2 0 0 0 8 1.2 26.3 26.3 0 0 0 26.3-26.3zm-8.6-55.9a19.5 19.5 0 0 0 9.7-3.4v-4.2c0-.5-.3-.6-.5.1s-2.8 6.1-8.3 6.2-9-4.8-9-10.5 3.7-10.2 9.2-10.3a7.4 7.4 0 0 1 7.2 5.4c0 .5.6.5.6 0v-4.5a17.4 17.4 0 0 0-9.1-2.3c-3.5 0-12 2.3-12 11.9s9 11.6 12.2 11.6z"/></g></symbol><symbol id="gucci" viewBox="0 0 216 216"><path fill="#231f20" fill-rule="evenodd" d="M60.6 69.3c-3.9 0-14.5-2.4-14.5-13.7s10.1-13.8 14.2-13.8 8.5.7 11 2.4v5.3a.5.5 0 1 1-.9 0 8.8 8.8 0 0 0-8.5-6.2c-6.5.2-10.9 5.3-10.9 12s4.3 12.6 10.7 12.4a10.2 10.2 0 0 0 5.4-1.6v-5.9a2 2 0 0 0-2.1-2.3.5.5 0 1 1 0-.9h8.8c.7 0 .7 1 0 .9s-2 .6-2 2.3v6c-2.2 2-7.4 3.1-11.2 3.1zm60 0a21.7 21.7 0 0 0 11.5-4v-4.9c0-.7-.4-.8-.6 0s-3.4 7.3-9.8 7.5S111 62.1 111 55.3s4.4-12 10.9-12.1a8.5 8.5 0 0 1 8.5 6.3c0 .6.7.7.7 0v-5.3c-2.5-1.7-6.7-2.7-10.8-2.7s-14.2 2.7-14.2 14.1 10.7 13.7 14.5 13.7zm54.2-1.6a2 2 0 0 1-2.1-2.3v-20a2 2 0 0 1 2.1-2.3c.9 0 .9-.9 0-.9h-8.9c-.9 0-.9.9 0 .9a2 2 0 0 1 2.1 2.3v20a2 2 0 0 1-2.1 2.3.6.6 0 1 0 0 1.2h8.9a.6.6 0 1 0 0-1.2zM77.1 43.1c1 0 2 .6 2 2.3v13.1c0 6.4 4.9 11 11.3 11s11.4-4.6 11.4-11V45.4c0-1.7 1-2.3 2-2.3s1-.9 0-.9h-6c-1 0-1 .9 0 .9s2 .6 2 2.3l.3 13.8c0 4.4-3.6 8.9-8.1 8.9a8.1 8.1 0 0 1-8.1-8V45.4a2 2 0 0 1 2.1-2.3c.9 0 .9-.9 0-.9h-8.9c-1 0-1 .9 0 .9zm91.3 92.5a38.9 38.9 0 0 1-38.9 38.9 39.9 39.9 0 0 1-17.2-4 39.9 39.9 0 0 1-17.2 4 38.9 38.9 0 1 1 0-77.7 38.2 38.2 0 0 1 17.2 4 38.2 38.2 0 0 1 17.2-4 38.9 38.9 0 0 1 38.9 38.8zm-7.7 0a31.2 31.2 0 0 0-31.2-31.2 29.8 29.8 0 0 0-9.4 1.5 37.9 37.9 0 0 1 12.4 19.3h-8a31.5 31.5 0 0 0-12.2-15.6 31.5 31.5 0 0 0-12.2 15.6h-8a38.8 38.8 0 0 1 12.4-19.4 32.4 32.4 0 0 0-9.4-1.4 31.2 31.2 0 1 0 0 62.4 31.7 31.7 0 0 0 9.3-1.4 39.1 39.1 0 0 1-13.6-26.7h18.5v7.7h-9a31.4 31.4 0 0 0 12 15.1 30.8 30.8 0 0 0 12-15.1h-9v-7.7h18.5a38.5 38.5 0 0 1-13.7 26.6 29.4 29.4 0 0 0 9.4 1.5 31.2 31.2 0 0 0 31.2-31.2zm-10.2-66.3a21.7 21.7 0 0 0 11.5-4v-4.9c0-.7-.4-.8-.6 0s-3.4 7.3-9.8 7.5-10.7-5.8-10.7-12.6 4.4-12 10.9-12.1a8.5 8.5 0 0 1 8.5 6.3c0 .6.7.7.7 0v-5.3c-2.5-1.7-6.7-2.7-10.8-2.7S136 44.2 136 55.6s10.7 13.7 14.5 13.7z"/></symbol><symbol id="instagram" viewBox="0 0 216 216"><path fill="#ad974f" d="M72.4 108a36 36 0 1 1 36 36 36 36 0 0 1-36-36m-19.5 0a55.5 55.5 0 1 0 55.5-55.5A55.5 55.5 0 0 0 52.9 108m100.2-57.7A13 13 0 1 0 166 37.4a12.9 12.9 0 0 0-12.9 12.9M64.7 195.9c-10.5-.5-16.2-2.2-20-3.7a32.6 32.6 0 0 1-12.4-8.1 33 33 0 0 1-8.1-12.4c-1.5-3.8-3.3-9.5-3.7-20.1s-.7-14.8-.7-43.6.1-32.3.7-43.6 2.2-16.3 3.7-20.1a33 33 0 0 1 8.1-12.4 32.6 32.6 0 0 1 12.4-8.1c3.8-1.5 9.5-3.2 20-3.7s14.8-.6 43.7-.6 32.2.1 43.6.6 16.3 2.2 20.1 3.7a36.1 36.1 0 0 1 20.5 20.5c1.5 3.8 3.2 9.5 3.7 20.1s.6 14.8.6 43.6-.1 32.3-.6 43.6-2.3 16.3-3.7 20.1a36.1 36.1 0 0 1-20.5 20.5c-3.8 1.5-9.6 3.2-20.1 3.7s-14.8.6-43.6.6-32.3-.1-43.7-.6M63.8.7c-11.5.5-19.3 2.3-26.2 5a51.9 51.9 0 0 0-19.1 12.4A53.9 53.9 0 0 0 6 37.3C3.4 44.1 1.5 52 1 63.5S.4 78.7.4 108s.1 33 .6 44.5 2.4 19.4 5 26.2a53.9 53.9 0 0 0 12.5 19.2 51.9 51.9 0 0 0 19.1 12.4c6.9 2.7 14.7 4.5 26.2 5s15.2.7 44.6.7 33-.1 44.5-.7 19.3-2.3 26.2-5a51.9 51.9 0 0 0 19.1-12.4 52.6 52.6 0 0 0 12.5-19.2c2.7-6.8 4.5-14.7 5-26.2s.7-15.2.7-44.5-.2-33-.7-44.5-2.3-19.4-5-26.2a53.9 53.9 0 0 0-12.5-19.2 51.9 51.9 0 0 0-19.1-12.4c-6.9-2.7-14.7-4.5-26.2-5S137.7 0 108.4 0s-33 .1-44.6.7"/></symbol><symbol id="michael-kors" viewBox="0 0 216 216"><g fill="#231f20"><path fill-rule="evenodd" d="M109.5 148.8H97.7v6.1h10.9v2.4H97.7v6.6h12v2.4H95.1v-19.8h14.4zm6.4-2.3v17.4H126v2.4h-12.7v-19.8zm23.1 0v9.6l9.6-9.6h3.7l-8.2 8 8.4 11.8h-3.4l-7-9.9-3.1 3v6.9h-2.7v-19.8zm15.5 3a12.4 12.4 0 0 0 0 13.8c1.7 2.4 4.2 3.6 7.6 3.6s5.9-1.2 7.5-3.6a11.9 11.9 0 0 0 0-13.8q-2.4-3.6-7.5-3.6c-3.4 0-5.9 1.2-7.6 3.6m7.6-1.2a6.1 6.1 0 0 1 5 2.3 9.8 9.8 0 0 1 0 11.6 5.9 5.9 0 0 1-5 2.3 5.9 5.9 0 0 1-5.1-2.3 10.2 10.2 0 0 1 0-11.6 6.5 6.5 0 0 1 5.1-2.3m13.2-1.8v19.8h2.7v-8.5h6.5c2.3 0 3.5 1.2 3.5 3.5a17.5 17.5 0 0 0 .5 5h3.3v-.4a2 2 0 0 1-1-2l-.2-3.6a4 4 0 0 0-.8-2.7 3.4 3.4 0 0 0-1.6-1.1 5 5 0 0 0 2.8-4.7c0-3.6-2.2-5.3-6.5-5.3zm2.7 2.2h6.6c2.4 0 3.6 1.1 3.6 3.4s-1.3 3.4-4 3.4H178zm24-.4c-3.1 0-4.6 1.1-4.6 3.5s.8 2.1 2.4 2.4l5.7 1.3c3 .8 4.5 2.5 4.5 5.3a5.2 5.2 0 0 1-2.6 4.8 9.3 9.3 0 0 1-5.2 1.3 9.2 9.2 0 0 1-6-1.9 6.3 6.3 0 0 1-2-5.1h2.5a4.1 4.1 0 0 0 1.8 3.7 5.8 5.8 0 0 0 3.7 1c3.4 0 5.2-1.1 5.2-3.4a2.5 2.5 0 0 0-.9-2.2 7.4 7.4 0 0 0-3.3-1.3l-4.1-1c-2.8-.6-4.3-2.2-4.3-4.6a5.7 5.7 0 0 1 1.7-4.2 6.7 6.7 0 0 1 5.2-2c4.9 0 7.5 2.1 7.8 6.4h-2.6a3.6 3.6 0 0 0-1.7-3.2 6.1 6.1 0 0 0-3.2-.8m-180.1 1.3l-5.6 16.7h-2.6l-5.6-16.7H8v16.7H5.5v-19.8h3.9l5.6 16.8h.1l5.6-16.8h3.9v19.8h-2.7v-16.7zm18.2.7a8.9 8.9 0 0 0-1.9 5.9c0 5.5 2.2 8.3 6.6 8.3s5-1.8 5.7-5.5h2.6c-.5 3.2-1.9 5.5-4.2 6.8a9.4 9.4 0 0 1-4.5 1.1 8.4 8.4 0 0 1-6.2-2.4c-1.8-1.9-2.7-4.6-2.7-8.2a11.3 11.3 0 0 1 2.4-7.5 8.8 8.8 0 0 1 6.8-2.9 8.4 8.4 0 0 1 5.9 2.1 7 7 0 0 1 2.3 4.4h-2.6c-.6-2.8-2.4-4.1-5.6-4.1a5.7 5.7 0 0 0-4.6 2m19-3.8v8.2h10.3v-8.2h2.7v19.8h-2.7V157H59.1v9.3h-2.8v-19.8zm23 0l-7.5 19.8h2.8l2-5.7h8l2 5.7h2.9l-7.2-19.8zm1.4 2.9l2.9 8.8h-6.1l3.1-8.8zM29 146.5h2.7v19.8H29z"/><path d="M107.7 32.2a50.1 50.1 0 1 0 50.1 50.1 50.1 50.1 0 0 0-50.1-50.1m40.5 50.1a40 40 0 0 1-4.2 17.9l-15.7-20.3 15.6-15.8a39.4 39.4 0 0 1 4.3 18.2m-40.5-40.5a40.4 40.4 0 0 1 34.9 19.9h-9.8l-15 13.9V61.7h-12.7L94.7 87.3l-10-25.6H72.9a40.4 40.4 0 0 1 34.8-19.9M72 63.2v38.1a40.3 40.3 0 0 1-4.8-19A41 41 0 0 1 72 63.2m35.7 59.6a40.5 40.5 0 0 1-34.8-19.9H81V82.3l9 20.6h8.8l8.9-20.6v20.6h9.6l.4-14.1 3.1-2.5 13.5 16.6h8.3a40.7 40.7 0 0 1-34.9 19.9"/></g></symbol><symbol id="mk-icon" viewBox="0 0 218.8 218.8"><rect width="218.8" height="218.77" fill="#fff" rx="60"/><g fill="#231f20"><path fill-rule="evenodd" d="M110.4 150.5h-10v5.2h9.2v2h-9.2v5.6h10.1v2H98.2v-16.7h12.2zm5.4-1.9v14.7h8.5v2h-10.7v-16.7zm19.5 0v8.1l8.1-8.1h3.1l-6.9 6.8 7.1 9.9h-2.9l-5.9-8.4-2.6 2.6v5.8H133v-16.7zm13 2.6a8.9 8.9 0 0 0-1.7 5.7 9.2 9.2 0 0 0 1.7 5.8 7.4 7.4 0 0 0 6.4 3.1 7.2 7.2 0 0 0 6.4-3.1 9.3 9.3 0 0 0 1.8-5.8 9 9 0 0 0-1.8-5.7 7 7 0 0 0-6.4-3.1 7.2 7.2 0 0 0-6.4 3.1m6.4-1.1a5.1 5.1 0 0 1 4.3 2 7.5 7.5 0 0 1 1.6 4.8 7.8 7.8 0 0 1-1.6 4.9 5.1 5.1 0 0 1-4.3 2 5 5 0 0 1-4.2-2 7.2 7.2 0 0 1-1.6-4.9 7 7 0 0 1 1.6-4.8 5 5 0 0 1 4.2-2m11.2-1.5v16.7h2.2v-7.2h5.5a2.7 2.7 0 0 1 3 3 19.9 19.9 0 0 0 .4 4.2h2.8v-.4a1.5 1.5 0 0 1-.8-1.6l-.2-3.1a3.3 3.3 0 0 0-.7-2.3 3 3 0 0 0-1.3-.9 4.1 4.1 0 0 0 2.3-3.9c0-3.1-1.8-4.6-5.5-4.6zm2.2 1.9h5.7c2 0 3 .9 3 2.8s-1.1 2.9-3.4 2.9h-5.3zm20.3-.4c-2.6 0-3.9 1-3.9 2.9s.7 1.8 2.1 2.1l4.8 1.1c2.5.6 3.7 2.1 3.7 4.5a4.2 4.2 0 0 1-2.2 4 7.3 7.3 0 0 1-4.3 1.1 7.9 7.9 0 0 1-5.1-1.6 5.7 5.7 0 0 1-1.7-4.3h2.2a3.4 3.4 0 0 0 1.4 3.1 5.3 5.3 0 0 0 3.2.8c2.9 0 4.3-.9 4.3-2.8a2.3 2.3 0 0 0-.7-1.9 6.9 6.9 0 0 0-2.8-1.1l-3.4-.8q-3.6-.7-3.6-3.9a4.3 4.3 0 0 1 1.4-3.5 5.5 5.5 0 0 1 4.4-1.7c4.1 0 6.3 1.8 6.5 5.4h-2.1a3.2 3.2 0 0 0-1.4-2.7 5.5 5.5 0 0 0-2.8-.7m-151.9 1.1l-4.7 14.1h-2.3l-4.6-14.1h-.1v14.1h-2.2v-16.7h3.3l4.7 14.1h.1l4.8-14.1h3.2v16.7h-2.2v-14.1zm15.3.6a6.9 6.9 0 0 0-1.5 5c0 4.6 1.8 7 5.5 7s4.2-1.5 4.8-4.7h2.2a7.2 7.2 0 0 1-3.6 5.7 6.9 6.9 0 0 1-3.7 1 7 7 0 0 1-5.2-2.1q-2.4-2.2-2.4-6.9a9.8 9.8 0 0 1 2.1-6.3 7.1 7.1 0 0 1 5.7-2.4 7.1 7.1 0 0 1 5 1.7 5.6 5.6 0 0 1 1.9 3.8h-2.2c-.4-2.4-2-3.5-4.7-3.5a4.9 4.9 0 0 0-3.9 1.7m16-3.2v6.9h8.8v-6.9h2.2v16.7h-2.2v-7.8h-8.8v7.8h-2.3v-16.7zm19.5 0l-6.4 16.7h2.4l1.7-4.8h6.7l1.7 4.8h2.5l-6.1-16.7zm1.1 2.5l2.5 7.4h-5.2l2.7-7.4zm-45.9-2.5h2.3v16.7h-2.3z"/><path d="M108.9 52.1a42.3 42.3 0 1 0 42.3 42.3 42.3 42.3 0 0 0-42.3-42.3m34.2 42.3a33.2 33.2 0 0 1-3.6 15.1l-13.2-17.1L139.4 79a34.6 34.6 0 0 1 3.7 15.4m-34.2-34.2a34 34 0 0 1 29.4 16.9H130l-12.6 11.7V77.1h-10.7l-8.8 21.5-8.4-21.5h-10a34 34 0 0 1 29.4-16.9M78.8 78.3v32.2a33.7 33.7 0 0 1 0-32.2m30.1 50.3a34.2 34.2 0 0 1-29.4-16.8h6.8V94.4l7.7 17.4h7.3l7.6-17.4v17.4h8.1l.3-11.9 2.6-2.1 11.4 14h7a34.4 34.4 0 0 1-29.4 16.8"/></g></symbol><symbol id="return-box" viewBox="0 0 216 216"><path fill="#8e793e" d="M215.4 109.5L192 71.4h-.1V71h-.1v-.2c-.1 0-.1 0-.1-.1h-.1l-.4-.3-.3-.2h-.2l-.4-.2h-.3l-.4-.2h-.1l-68.3-17.7h-.3a28.5 28.5 0 0 0-5.7-8.9 48 48 0 0 0-23.8-13.5A71.9 71.9 0 0 0 76 27.6h-8.2v-4.7a8.6 8.6 0 0 0-5.3-7.9 11.2 11.2 0 0 0-3.1-.5 8.5 8.5 0 0 0-6.2 2.6l-19.7 21a8.7 8.7 0 0 0 .4 12l19.7 18.3a8.5 8.5 0 0 0 5.8 2.3 7.5 7.5 0 0 0 3.3-.7 8.4 8.4 0 0 0 5.1-7.8v-2h7.3a47.7 47.7 0 0 1 8.7.8l-1.4.8L34.6 88h-1.1c0 .1 0 .1-.1.1h-.1a.1.1 0 0 1-.1.1c-.1 0-.1.1-.2.2l-6.9 11.5a4.2 4.2 0 0 0 1.5 5.8 4.2 4.2 0 0 0 5.8-1.4l5.3-8.9 48.2 11.7 27.7 6.8-28.7 48.4-75.1-19 6.1-10.2a4.2 4.2 0 1 0-7.3-4.3l-9 15.1a4.2 4.2 0 0 0-.3 3.8 4.2 4.2 0 0 0 2.9 2.4l29.2 7.4v18.8a4.1 4.1 0 0 0 3.2 4.1l84.6 20.7h2.7l.4-.2 67.3-39.3a4.1 4.1 0 0 0 2.1-3.6v-42h19.1a4.5 4.5 0 0 0 3.7-2.2 4.4 4.4 0 0 0-.1-4.3zm-38.1-34.4l-56.7 32.7-9.7-2.3V89.9c.1 1 .2 1.6.2 1.7a8.5 8.5 0 0 0 8.4 8h.4a8.5 8.5 0 0 0 8.1-8.8 166.6 166.6 0 0 0-1.8-18.5 91.4 91.4 0 0 0-2.2-10.7zM59.4 51.8v10.4L39.7 43.9l19.7-21V36s11.8-.2 15.7 0c9.1.5 24 2.3 34.1 13.1 8.5 9.3 10.4 42 10.4 42S117 51.8 75.1 51.8zm27 17.4l8.1-4.5a27.9 27.9 0 0 1 8 6.5v32.2L48.2 90.2zm-45.5 90.4l45.9 11.6 1 .2a4.4 4.4 0 0 0 3.7-2.1l4.3-7.1 11.8 2.2h.8a4.3 4.3 0 0 0 4.2-3.4 4.4 4.4 0 0 0-3.4-5l-8.7-1.6 16.5-27v64.1L40.9 173zm143.3-4.3l-58.8 34.3v-74.8l58.8-33.9zm8.5-47.8V88.6l11.5 18.9z"/></symbol><symbol id="plane" viewBox="0 0 216 216"><g fill="#8e793e"><path d="M103.3 109.1a4.2 4.2 0 1 0 6 0 4.3 4.3 0 0 0-6 0z"/><path d="M161.8 26.7c-6.3 4.8-7.9 7.3-30 29.1l-13.2-2.1 6.1-6.1a10.9 10.9 0 0 0-15.4-15.3L92.2 49.4l-59.9-9.8a12.3 12.3 0 0 0-9.2 22l59.7 43.2L71.7 116a88.5 88.5 0 0 0-12.1 15.7l-27.8-8.2a11.7 11.7 0 0 0-10 20.8l22.9 15.8c-4 8.8-6.4 15.2-6.5 15.4a3.7 3.7 0 0 0 .8 3.9 3.6 3.6 0 0 0 3.8.8c.3-.1 6.7-2.5 15.4-6.5L74 196.5a11.7 11.7 0 0 0 20.9-9.9l-8.2-27.9a84.1 84.1 0 0 0 15.7-12l11.2-11.1 43.2 59.7a12.3 12.3 0 0 0 22-9.2l-9.8-59.9 17.1-17.1a10.9 10.9 0 0 0-15.3-15.4l-6.1 6.1-2.2-13.2c21.9-22.1 24.3-23.7 29.1-30h.1c11.1-14.5 13.7-29.1 6.5-36.4s-22-4.6-36.4 6.5zm-47.4 10.7a3.6 3.6 0 0 1 5.1 0 3.5 3.5 0 0 1 0 5.1l-9.7 9.8-8.8-1.5zm-87 18.3a5 5 0 0 1 3.7-8.9l94.4 15.4L88 99.6zm-2.1 75.9a4.7 4.7 0 0 1 4.5-1.2l26 7.7c-2.7 4.7-5.3 9.8-8 15.4L26 138.4a4.5 4.5 0 0 1-.7-6.8zM86.8 193a4.4 4.4 0 0 1-6.8-.6l-15.1-21.8c5.6-2.7 10.7-5.4 15.4-8l7.6 26a4.2 4.2 0 0 1-1.1 4.4zm89.1-94.2a3.6 3.6 0 0 1 5.1 0 3.7 3.7 0 0 1 0 5.2l-13.4 13.4-1.5-8.8zm-4.3 88.5a5 5 0 0 1-8.9 3.7l-44-60.6 37.5-37.5zm-74.3-45.7c-4 4-9.9 8.3-17.4 12.8a253 253 0 0 1-31.7 15.8 270 270 0 0 1 16.1-32.3 89 89 0 0 1 12.5-16.8c88.5-88.2 83.2-83.7 88.6-88 5.9-.4 11.2 1.4 14.8 5.1s5.4 8.9 5.1 14.8c-4.3 5.4.2.2-88 88.6zm94.2-98.1a24.7 24.7 0 0 0-6.1-10.5 25.3 25.3 0 0 0-10.5-6.1c5.2-2.6 14.1-5.6 18.1-1.6s2.4 10.3-1.5 18.2z"/><path d="M127.1 85.3l-11.9 11.9a4.2 4.2 0 0 0 6 6L133 91.3a4.2 4.2 0 0 0 0-6 4.2 4.2 0 0 0-5.9 0zm23.8-23.8L139 73.4a4.2 4.2 0 0 0 0 6 4.2 4.2 0 0 0 5.9 0l11.9-11.9a4.2 4.2 0 0 0 0-6 4.2 4.2 0 0 0-5.9 0z"/></g></symbol><symbol id="rolex-icon" viewBox="0 0 218.8 218.8"><rect width="218.8" height="218.77" fill="#fff" rx="60"/><g fill-rule="evenodd"><path fill="#fff" d="M27.2 27.3h162.6v162.6H27.2z"/><path fill="#ae9a6d" d="M131.7 76a2.9 2.9 0 0 0-1.7-1.7 2.6 2.6 0 0 0-2.7.8 2.4 2.4 0 0 0-.3 2.7c.2.8 1 1 1 1.9l-7.1 16.2c-.4.5-.4 1.4-1 1.8a.7.7 0 0 1-.4-.6l.8-13.4.5-9.1c.1-.7-.2-1.7.4-2.2a3.2 3.2 0 0 0 2.1-1.5 3 3 0 0 0-.3-2.9 2.6 2.6 0 0 0-4.5 1.4 2.5 2.5 0 0 0 1.4 2.7c.2 0 .4.3.5.5l-5.5 24.1c-.1.4-.5.7-.7.6a.5.5 0 0 1-.3-.5l-2.5-26.5c.4-1 1.7-.9 2-2a3.3 3.3 0 0 0 .1-2.2 3 3 0 0 0-1.9-1.4 4.6 4.6 0 0 0-2 .5 2.6 2.6 0 0 0-1 2.6 1.9 1.9 0 0 0 .9 1.4c.3.5 1.2.4 1.2 1.2l-1.1 13.2-1.1 13.4-.3.4c-.2.3-.5-.1-.5-.2l-6.2-23.7a1.4 1.4 0 0 1 .1-1.1 3.6 3.6 0 0 0 1.4-3.2 2.6 2.6 0 0 0-4.9-.2 2.8 2.8 0 0 0 .5 2.9c.5.7 1.9.2 2.2 1.1l.5 4.4 2.1 20c0 .6.2 1.2-.1 1.6a.5.5 0 0 1-.6-.1l-8.4-18.3c-.1-.5-.5-1-.2-1.6a5.6 5.6 0 0 0 1-1.5 2.2 2.2 0 0 0-.4-1.9 2.2 2.2 0 0 0-1.4-1.1 3.2 3.2 0 0 0-2.8.8 2.8 2.8 0 0 0-.2 2.8 1.9 1.9 0 0 0 1.5 1.2c.7.3 1.4 0 1.7.7 2.7 8.9 5.2 17.8 7.7 26.7l1.3 1c2.8 1.7 6.1 3.1 9.6 2.9a12.6 12.6 0 0 0 3.8-1 11.1 11.1 0 0 0 2.9-1.4 8.2 8.2 0 0 0 2-1.2l5.6-19.6 2.2-7.5c.4-1.1 2.1-.6 2.7-1.7a4.3 4.3 0 0 0 .4-2.2zm-11.8 30.8a19.2 19.2 0 0 1-7.1 1.9 18.8 18.8 0 0 1-10.6-2.2c-.3 0-.1-.2 0-.3a15.7 15.7 0 0 1 7.8-2.8c3.7-.1 7.2.6 9.9 2.7.4.2.4.6 0 .7z"/><path fill="#496364" d="M105.5 144.1a1.4 1.4 0 0 0 .7 1h1.1c2.8-.1 4 .2 6.7-.2a3.5 3.5 0 0 0 2.1-2.2 55.4 55.4 0 0 0 .7-5.7h2.3v10.7H96.2V145c1.5-.1 1.8.1 3.5-.1s.8-.6.7-1.1v-16.6c-.1-.6 0-1.7-.7-2.1s-2.8-.2-3.4-.5v-2.4H110v2.2c-1 .4-2.8.1-3.7.5s-.7.4-.8.9v18.3zm21.6-18.3c0-.4-.1-.8-.4-.9H123v-2.6h24.5v10.2H145c0-2.7-.1-6-2.4-7.2a7.8 7.8 0 0 0-2.1-.4h-7.3c-.1.1-1-.1-1.1.3v7.5l.3.4c1.8 0 4.2.3 5.1-1.9a16.5 16.5 0 0 0 .4-3.1h2.3v13.2h-2.6c-.1-1.6.2-4-1.1-4.9s-2.6-.7-4.1-.5l-.3.2v8.7c.1.4.6.3 1 .3 2.5-.1 4.7.1 8.1-.1a4.3 4.3 0 0 0 3.3-3.7 32.7 32.7 0 0 0 .4-4.4h2.6v10.9h-24.7v-2.7c1.6 0 3.1.2 3.9-.2a1.8 1.8 0 0 0 .4-1.7v-17.4zm55.6 22h-14.8v-2.6c.8-.2 2.6.2 3.5-.3a1.9 1.9 0 0 0 .5-1.3c-1.5-2-3.1-3.9-4.6-5.8-.5 0-.8.3-1.2.8l-4 4.7a1.3 1.3 0 0 0 0 1.2 1.4 1.4 0 0 0 1 .7h2.5v2.6h-13v-2.5h2.7a5.4 5.4 0 0 0 2.2-1.3c2.3-3 4.9-5.9 7.5-8.8l-.2-.4c-2.1-2.9-4.4-5.8-6.8-8.7-.5-.9-1.9-1-3.1-1h-1.2v-2.7h13.8v2.6c-.5.2-1.3 0-1.8.1a1.5 1.5 0 0 0-1 .4 1.2 1.2 0 0 0-.1 1.3l3.4 4.5h.4c1.3-1.5 2.7-3.2 4-4.9a.9.9 0 0 0-.1-1.2h-2.7v-2.6h12v2.6s-3.5-.3-4.4.9c-2.2 2.8-4.6 5.4-6.8 8.2l.4.6 7.5 9.5c.9 1.2 2.7 1.1 4.5 1.1v2.7zm-121.8-7h-2a13.8 13.8 0 0 1-.3 3.6 1.1 1.1 0 0 1-1.2.5 1.6 1.6 0 0 1-1-.8c-.3-2-.1-4.3-.5-6.3s-2.4-2.5-4.1-2.9c-.1 0-.2-.4 0-.4 1.9-.4 3.5-.6 4.8-2s2.2-4 1.5-6.3-3.9-3.9-6.5-4h-17v2.3a14.7 14.7 0 0 1 3.6.4c.3.1.5.5.6.9V141l-.3 3.2c-.6 1.6-2.9.9-4.1 1.1v2.5h13.4v-2.6h-3.6a1.3 1.3 0 0 1-.5-1.1v-8l.4-.2a14.8 14.8 0 0 1 4.2 0 3.6 3.6 0 0 1 2.5 2c.8 2.3.4 4.9.9 7.5a3.4 3.4 0 0 0 2.2 2.8c1.8.7 4.4.7 5.8-.4s1.1-4.6 1.2-6.9zm-11.1-8.3h-5.9l-.2-.2V125c0-.2.5-.3.7-.3 1.7.3 5.6-.6 7.2.9a4.7 4.7 0 0 1 1.2 4.1 3.8 3.8 0 0 1-3 2.7zm38.8-6.6a12.8 12.8 0 0 0-8.2-4.2h-2a14.3 14.3 0 0 0-7.9 2.8c-3.7 2.7-6.1 8.7-4.6 14.1a13.1 13.1 0 0 0 8.9 9.6 34.4 34.4 0 0 0 4.5.5c5.2-.1 9.3-3.1 11.6-7.9s.9-11.5-2.3-14.8zm-4.3 16.3a6.7 6.7 0 0 1-5.6 3 5.8 5.8 0 0 1-3.4-.9c-3.3-1.9-4.2-6.7-3.8-11s1.8-6.9 4.5-8a9.4 9.4 0 0 1 3.9-.4 6.2 6.2 0 0 1 4.6 3.4 16.1 16.1 0 0 1-.2 13.9z"/></g></symbol><symbol id="rolex" viewBox="0 0 216 216"><path fill="#ae9a6d" fill-rule="evenodd" d="M135.2 70a4.3 4.3 0 0 0-2-2 3.2 3.2 0 0 0-3.2.9 3.1 3.1 0 0 0-.4 3.2c.3 1 1.2 1.2 1.2 2.3l-8.3 19.2c-.6.7-.6 1.7-1.2 2.1s-.6-.4-.6-.6l1-15.9.6-10.8c.2-.8-.2-2 .4-2.6a3.2 3.2 0 0 0 2.1-5.2 3.4 3.4 0 0 0-2.9-1 3.5 3.5 0 0 0-2.4 2.7 3.2 3.2 0 0 0 1.8 3.2c.2 0 .4.3.5.5l-6.5 28.5c-.2.6-.6 1-.8.8a.8.8 0 0 1-.4-.6l-3-31.3c.6-1.2 2-1.1 2.4-2.4a4.9 4.9 0 0 0 .2-2.7 4.6 4.6 0 0 0-2.3-1.6 6.4 6.4 0 0 0-2.4.5 3.2 3.2 0 0 0-1.2 3.1 2.3 2.3 0 0 0 1.1 1.7c.4.6 1.4.4 1.4 1.4L109 79.1l-1.3 15.8-.3.6c-.3.2-.7-.2-.7-.3l-7.3-28.1a2 2 0 0 1 .1-1.3 3.8 3.8 0 0 0 1.6-3.8 2.9 2.9 0 0 0-2.9-2.1 3.1 3.1 0 0 0-2.8 1.9 3.2 3.2 0 0 0 .5 3.4c.7.8 2.3.3 2.7 1.4l.5 5.1 2.6 23.8c0 .6.2 1.3-.2 1.8a.3.3 0 0 1-.6-.1c-3.4-7.1-6.7-14.5-10-21.7-.2-.6-.6-1.2-.3-1.9a10.4 10.4 0 0 0 1.2-1.7 3.1 3.1 0 0 0-.4-2.3 2.6 2.6 0 0 0-1.7-1.3 3.8 3.8 0 0 0-3.4.9 3.8 3.8 0 0 0-.2 3.3 2.5 2.5 0 0 0 1.8 1.5c.8.3 1.6 0 2 .8 3.2 10.5 6.2 21.1 9.1 31.6l1.6 1.2c3.3 2 7.2 3.7 11.3 3.5a19.3 19.3 0 0 0 4.6-1.2 15.3 15.3 0 0 0 3.4-1.6 9.7 9.7 0 0 0 2.4-1.5l6.7-23.2 2.5-8.9c.5-1.4 2.5-.7 3.2-2a5 5 0 0 0 .5-2.7zm-13.9 36.5a21 21 0 0 1-8.4 2.3c-4.3.7-9.4-.8-12.7-2.5-.3 0-.1-.3 0-.4a19.3 19.3 0 0 1 9.3-3.4c4.4-.1 8.6.7 11.8 3.2.4.3.4.7 0 .8z"/><path fill="#496364" fill-rule="evenodd" d="M104.2 150.8a1.6 1.6 0 0 0 .8 1.2h1.3c3.4-.2 4.7.2 7.9-.3a3.9 3.9 0 0 0 2.5-2.5 39.4 39.4 0 0 0 .8-6.8h2.8V155l-27.2.2V152c1.8-.2 2.2.1 4.2-.2.2-.2.9-.6.8-1.3v-19.7c-.2-.8 0-2-.8-2.6s-3.4-.2-4-.5v-2.9h16.2v2.6c-1.2.4-3.3.2-4.4.6a1.1 1.1 0 0 0-.9 1v21.8zm25.6-21.8a1 1 0 0 0-.6-1c-1.6-.2-2.6 0-4.4-.2v-3h29.1v12.1H151c0-3.2-.2-7.1-2.8-8.5a16.7 16.7 0 0 0-2.6-.6l-8.6.2c-.2.1-1.2-.2-1.4.4v8.9l.4.4c2.2 0 5 .4 6-2.3a18.4 18.4 0 0 0 .6-3.6h2.6v15.6h-3c-.2-1.8.2-4.6-1.4-5.7s-3-.9-4.8-.7l-.4.3v10.3c.2.5.8.4 1.2.4 3-.2 5.6.1 9.6-.2a5.1 5.1 0 0 0 4-4.4 43.8 43.8 0 0 0 .4-5.2h3.1v13h-29.2V152c1.9 0 3.6.2 4.5-.3a2.1 2.1 0 0 0 .6-2V129zm65.8 26.2h-17.5v-3.1c1-.3 3.1.3 4.2-.4a1.8 1.8 0 0 0 .5-1.5c-1.7-2.4-3.6-4.6-5.5-6.9-.5 0-.9.4-1.3.9l-4.8 5.6a2.6 2.6 0 0 0 0 1.5 2 2 0 0 0 1.2.8h2.9v3.1L160 155v-2.9c1.4-.1 1.8.1 3.2-.1a6 6 0 0 0 2.6-1.6c2.8-3.5 5.8-7 8.9-10.4l-.3-.4c-2.5-3.5-5.2-7-8-10.4-.6-1.1-2.2-1.2-3.7-1.2h-1.5v-3.2h16.4v3c-.5.3-1.5 0-2.1.2a1.7 1.7 0 0 0-1.2.5 1.6 1.6 0 0 0-.2 1.5l4.2 5.3h.4c1.6-1.7 3.2-3.7 4.8-5.7a1.4 1.4 0 0 0-.2-1.5h-.5l-2.7-.2v-3h14.3v3s-4.2-.2-5.2 1.1c-2.7 3.3-5.5 6.4-8.2 9.7l.6.8 8.8 11.2c1 1.5 3.2 1.4 5.3 1.4v3.2zm-144.3-8.3h-2.4a15.3 15.3 0 0 1-.4 4.3 1.1 1.1 0 0 1-1.3.5 1.4 1.4 0 0 1-1.2-.9c-.4-2.4-.2-5.1-.7-7.5s-2.8-2.9-4.8-3.5c-.1 0-.3-.4 0-.4 2.3-.5 4.1-.8 5.7-2.4s2.6-4.8 1.8-7.4-4.7-4.7-7.8-4.8H20.1v2.8a19.1 19.1 0 0 1 4.3.4c.4.1.5.6.6 1v18.2l-.2 3.7c-.8 1.9-3.5 1.1-4.9 1.3v3h15.8v-3.1h-4.3a1.6 1.6 0 0 1-.5-1.4v-9.4l.4-.3a21.6 21.6 0 0 1 5.1 0 4.6 4.6 0 0 1 2.9 2.4c.9 2.8.5 5.9 1.1 8.9a4.1 4.1 0 0 0 2.6 3.4c2.2.8 5.2.8 6.8-.6s1.4-5.4 1.5-8.1zM38.1 137l-6.9.2-.3-.3v-8.7c0-.2.5-.4.8-.4 2 .4 6.7-.6 8.5 1.1a5.5 5.5 0 0 1 1.5 4.9c-.7 1.8-1.9 3.1-3.6 3.2zm46-7.8a15.5 15.5 0 0 0-9.8-5h-2.2a17 17 0 0 0-9.5 3.3c-4.4 3.2-7.2 10.3-5.4 16.7a15.9 15.9 0 0 0 10.6 11.5 52.4 52.4 0 0 0 5.3.5c6.2-.1 11-3.6 13.8-9.3s1-13.6-2.8-17.6zM79 148.5a7.8 7.8 0 0 1-6.6 3.6 6.7 6.7 0 0 1-4-1.1c-3.9-2.2-5-8-4.6-13s2.2-8.2 5.4-9.5c1.3-.7 2.8-.5 4.6-.5a7.6 7.6 0 0 1 5.5 4.1c2.4 4.7 2.4 11.9-.3 16.4z"/></symbol><symbol id="search-icon" viewBox="0 0 216 216"><path fill="#fff" d="M212.9 193.7l-48.9-47a85.6 85.6 0 0 0 19.2-53.8c0-48.5-41.1-88-91.6-88S0 44.4 0 92.9s41.1 88 91.6 88a93.5 93.5 0 0 0 57.5-19.6l48.8 46.8a10.7 10.7 0 0 0 7.5 3 10.8 10.8 0 0 0 7.5-3 10 10 0 0 0 0-14.4zM21.2 92.9c0-37.3 31.6-67.6 70.4-67.6s70.3 30.3 70.3 67.6-31.5 67.6-70.3 67.6-70.4-30.4-70.4-67.6z"/></symbol><symbol id="search-icon-black" viewBox="0 0 216 216"><path fill="#231f20" d="M212.9 193.7l-48.9-47a85.6 85.6 0 0 0 19.2-53.8c0-48.5-41.1-88-91.6-88S0 44.4 0 92.9s41.1 88 91.6 88a93.5 93.5 0 0 0 57.5-19.6l48.8 46.8a10.7 10.7 0 0 0 7.5 3 10.8 10.8 0 0 0 7.5-3 10 10 0 0 0 0-14.4zM21.2 92.9c0-37.3 31.6-67.6 70.4-67.6s70.3 30.3 70.3 67.6-31.5 67.6-70.3 67.6-70.4-30.4-70.4-67.6z"/></symbol><symbol id="seiko-icon" viewBox="0 0 218.8 218.8"><rect width="218.8" height="218.77" fill="#fff" rx="60"/><g fill-rule="evenodd"><path fill="#fff" d="M27.7 29.5h162.7v162.6H27.7z"/><path fill="#231f20" d="M171.6 96c-9 0-16.3 6.6-16.3 14.7s7.3 14.8 16.3 14.8 16.3-6.6 16.3-14.8S180.6 96 171.6 96zm0 25.6c-6.6 0-11.9-4.9-11.9-10.9s5.3-10.8 11.9-10.8 11.9 4.9 11.9 10.8-5.3 10.9-11.9 10.9zM64.2 100.8h4.9v19.9h-4.9v3.9h33.1v-9.4h-5v5.5H74.1v-7.9h8.1v3.4h5v-10.6h-5v3.3h-8.1v-8.1h18.2v5.4h5v-9.3H64.2zm36.7 0h4.9v19.9h-4.9v3.9h14.8v-3.9h-4.9v-19.9h4.9v-3.9h-14.8z"/><path fill="#231f20" d="M140.6 108.2l9.9-7.4h4.5v-3.9h-14.2v3.9h2.9l-14.5 10.9v-10.9h4.9v-3.9h-14.9v3.9h4.9v19.9h-4.9v3.9h14.9v-3.9h-4.9v-3.9l7.6-5.8 8.6 9.7h-4.5v3.9h14.7v-3.9h-3.9zm-94.9.4c-6 0-11.1-.1-11.1-4.3s7.1-4.4 9.6-4.4 11.6 1.5 11.6 4.9v1.4h5v-9.3h-5v1.8a31 31 0 0 0-11.5-2.6c-5 0-14.2 1.1-14.2 8.3s7.3 8.3 15.5 8.3c4.8 0 11-.2 11 4.2s-7.4 4.9-9.8 4.9-11.2-.8-11.2-5v-1.6h-5v9.4h5V123a24.2 24.2 0 0 0 11.5 2.6c4.9 0 14.1-.8 14.1-8.8s-9.4-8.2-15.5-8.2z"/></g></symbol><symbol id="seiko" viewBox="0 0 216 216"><path fill="#231f20" fill-rule="evenodd" d="M182.1 87.5c-10.7 0-19.3 7.9-19.3 17.5s8.6 17.5 19.3 17.5 19.4-7.8 19.4-17.5-8.7-17.5-19.4-17.5zm0 30.4c-7.7 0-14-5.8-14-12.9s6.3-12.8 14-12.8 14.1 5.7 14.1 12.8-6.3 12.9-14.1 12.9zM54.8 93.2h5.9v23.6h-5.9v4.7h39.3v-11.1h-5.9v6.4H66.6v-9.3h9.6v4h5.9V98.9h-5.9v4h-9.6v-9.7h21.6v6.5h5.9V88.6H54.8v4.6zm43.5 0h5.9v23.6h-5.9v4.7h17.6v-4.7h-5.8V93.2h5.8v-4.6H98.3v4.6z"/><path fill="#231f20" fill-rule="evenodd" d="M145.4 102l11.7-8.8h5.3v-4.6h-16.7v4.6h3.4l-17.3 13v-13h5.9v-4.6h-17.6v4.6h5.8v23.6h-5.8v4.7h17.6v-4.7h-5.9v-4.6l9.1-6.8 10.2 11.4h-5.4v4.7h17.5v-4.7h-4.7L145.4 102zm-112.4.4c-7.2 0-13.2-.1-13.2-5s8.4-5.2 11.4-5.2S44.8 94 44.8 98v1.7h6V88.6h-6v2.2a35.4 35.4 0 0 0-13.6-3.2c-5.9 0-16.7 1.4-16.8 9.9s8.7 9.8 18.4 9.8c5.7 0 13-.2 13 5s-8.8 5.9-11.5 5.9-13.3-1-13.3-6v-1.8h-6v11.1h6v-1.9c2.2 1.3 7.8 3.1 13.6 3.1s16.7-1 16.7-10.5-11.2-9.8-18.3-9.8z"/></symbol><symbol id="tudor-icon" viewBox="0 0 218.8 218.8"><rect width="218.8" height="218.77" fill="#fff" rx="60"/><path fill="#ed1c24" d="M122.4 80.8v-8.3a16.3 16.3 0 0 1-10-.4v8.7h10m-15.4 0v-8.7a16.6 16.6 0 0 1-10.1.4v8.3zm19.9 5a30.3 30.3 0 0 1-17.2 26.4 30.1 30.1 0 0 1-17.2-26.4V64.2a11.3 11.3 0 0 0 16 1.9l1.2-1.1a11.4 11.4 0 0 0 16.1.4l1.1-1.2zm-4.6 0H97.1a25.2 25.2 0 0 0 12.6 21.2 25.4 25.4 0 0 0 12.6-21.2z"/><path fill="#231f20" d="M75.4 150.3a7.5 7.5 0 0 0 2.1-.2 5.4 5.4 0 0 0 4.4-4.8v-15a.4.4 0 0 0-.1-.3 1.6 1.6 0 0 0-1-.8l-2.4-.4h-1.1v-2.9h12.9v2.9h-.7l-2.4.4a1.6 1.6 0 0 0-1 .8.4.4 0 0 0-.1.3v15a7.3 7.3 0 0 1-.4 2.5 9.4 9.4 0 0 1-5.4 5.3 16.1 16.1 0 0 1-10.6 0 7.9 7.9 0 0 1-5.1-4.2 6.5 6.5 0 0 1-.8-3.1v-15.5a.4.4 0 0 0-.1-.3 1.6 1.6 0 0 0-1-.8l-2.6-.4v-2.9h13.2v2.9l-2.6.4a1.6 1.6 0 0 0-1 .8c0 .1-.1.2-.1.3v15.1a4.7 4.7 0 0 0 3.7 4.6 7.8 7.8 0 0 0 2.2.3m-41 3.1v-3.2h2.4l1.5-.2a.9.9 0 0 0 .6-.9v-20h-3a3.8 3.8 0 0 0-2.1 1.2 10.7 10.7 0 0 0-2.1 4.1h-2.8v-8.6h25.9v8.6H52a10.9 10.9 0 0 0-2.2-4.1 3.5 3.5 0 0 0-2.1-1.2h-3V149a1 1 0 0 0 .6.9l1.5.2h2.4v3.2H34.5m74-27.4a21.7 21.7 0 0 1 7.9 1.8 13.3 13.3 0 0 1 6.3 17.4 15.9 15.9 0 0 1-12.8 8.3H95.5v-2.8h3.1l.5-.2a1.2 1.2 0 0 0 .2-1V130a1.2 1.2 0 0 0-.7-1l-.9-.3-2.2-.3v-2.5h13m-3.4 3.1a1.6 1.6 0 0 0-.3.9v19.3a1.6 1.6 0 0 0 .2 1l.6.2h3a8 8 0 0 0 7.5-3.6 14.6 14.6 0 0 0-.2-13.9 9.2 9.2 0 0 0-7.2-4.3h-3.1l-.5.2zm37.8-4.1a14.7 14.7 0 0 1 14.7 14.7 14.8 14.8 0 1 1-14.7-14.7m6.2 22.9a15.5 15.5 0 0 0 1.9-8.2 15.4 15.4 0 0 0-1.9-8.1 7.3 7.3 0 0 0-6.2-3.4 7.5 7.5 0 0 0-6.3 3.4 18.4 18.4 0 0 0 0 16.3 7.5 7.5 0 0 0 6.3 3.4 7.3 7.3 0 0 0 6.2-3.4zm30.6-9.9a4.3 4.3 0 0 0 3.2-3.6 4.5 4.5 0 0 0-3.7-5.1h-.3a23.4 23.4 0 0 0-3.8-.3h-5.4v9.4h7l3-.4m-5.4 3.5h-4.6v7.7a.9.9 0 0 0 .4.7h.1l1 .2 2.2.3v3h-12.7v-3.1l2.2-.2 1-.2h.2a1.1 1.1 0 0 0 .3-.7v-18.9a.9.9 0 0 0-.3-.7v-.2l-.9-.2-2.4-.5v-2.7h19.6a6.4 6.4 0 0 1 3.8 1.2 7.7 7.7 0 0 1 3.5 6.1 7.9 7.9 0 0 1-7.4 8.4l5.4 7.3a2.9 2.9 0 0 0 1.9 1.1l3 .3v3.1h-7.9z"/></symbol><symbol id="tudor" viewBox="0 0 216 216"><path fill="#ed1c24" d="M124 69.2v-9.9a18.7 18.7 0 0 1-11.9-.4v10.3H124m-18.3 0V58.9a18.7 18.7 0 0 1-11.9.4v9.9zm23.6 5.9a36 36 0 0 1-20.4 31.3 36 36 0 0 1-20.4-31.3V49.5a13.4 13.4 0 0 0 19 2.2l1.4-1.2a13.5 13.5 0 0 0 19.1.4l1.3-1.4zm-5.4 0h-30a30.5 30.5 0 0 0 15 25.2 30.5 30.5 0 0 0 15-25.2z"/><path fill="#231f20" d="M68.2 151.6l2.6-.2a6.6 6.6 0 0 0 5.2-5.8v-18.1a1.8 1.8 0 0 0-1.2-.9 15.1 15.1 0 0 0-2.8-.5h-1.5v-3.3h15.3v3.2H85a12.6 12.6 0 0 0-2.8.5 1.6 1.6 0 0 0-1.2.9.4.4 0 0 0-.1.3v17.8a8 8 0 0 1-.6 3 10.9 10.9 0 0 1-6.3 6.3 17.3 17.3 0 0 1-6.3 1 16.7 16.7 0 0 1-6.3-1 9.4 9.4 0 0 1-6.1-4.9 8.1 8.1 0 0 1-.9-3.7v-18.4a.4.4 0 0 0-.1-.3 1.6 1.6 0 0 0-1.2-.9 15.9 15.9 0 0 0-3-.6v-3.3h15.6v3.3a17 17 0 0 0-3.1.6 1.8 1.8 0 0 0-1.2.9v18.2a5.9 5.9 0 0 0 4.3 5.6l2.6.3m-48.6 3.6v-3.7h2.8a5.7 5.7 0 0 0 1.8-.3 1.2 1.2 0 0 0 .7-1v-23.8h-1.7l-1.8.2A3.5 3.5 0 0 0 19 128a12.9 12.9 0 0 0-2.6 4.9h-3.3v-10.2h30.7v10.2h-3.3a12.9 12.9 0 0 0-2.6-4.9 3.5 3.5 0 0 0-2.5-1.4l-1.8-.2h-1.7v23.7a1.2 1.2 0 0 0 .7 1 5.7 5.7 0 0 0 1.8.3h2.8v3.7H19.7m87.8-32.4a25.7 25.7 0 0 1 9.4 2.1 15.7 15.7 0 0 1 7.4 20.6 18.6 18.6 0 0 1-15.1 9.8H92.1V152l2.6-.2 1-.2.7-.2a1.4 1.4 0 0 0 .2-1.1v-22.8a1.4 1.4 0 0 0-.9-1.2l-1-.4-2.6-.3v-2.9h15.4m-4.1 3.6a2 2 0 0 0-.3 1.1v22.9a2 2 0 0 0 .3 1.1l.6.2 1 .2h2.7a9.5 9.5 0 0 0 8.8-4.4 17.3 17.3 0 0 0-.2-16.4 11.1 11.1 0 0 0-8.5-5.2h-2.7l-1 .2zm44.8-4.8a17.5 17.5 0 1 1-17.5 17.4 17.4 17.4 0 0 1 17.5-17.4m7.4 27.1a19.3 19.3 0 0 0 2.3-9.7 18.9 18.9 0 0 0-2.3-9.6 8.8 8.8 0 0 0-14.8 0 17.9 17.9 0 0 0-2.2 9.6 18.2 18.2 0 0 0 2.2 9.7 8.8 8.8 0 0 0 14.8 0zm36.3-11.8a5 5 0 0 0 3.8-4.2 5.2 5.2 0 0 0-4.4-6h-.3a34 34 0 0 0-4.5-.3H180v11.1h8.3a14.9 14.9 0 0 0 3.6-.5m-6.4 4.3H180v9a1.4 1.4 0 0 0 .5.9h.2l1.1.2a20.6 20.6 0 0 0 2.6.3v3.6h-15v-3.6l2.6-.3 1.1-.2h.3a1.8 1.8 0 0 0 .4-.9v-22.4a1 1 0 0 0-.4-.9c0-.1-.1-.1-.2-.2l-1-.3-2.8-.6v-3.1h23.2a8 8 0 0 1 4.5 1.4 9.3 9.3 0 0 1-4.6 17.1l6.4 8.7a3.2 3.2 0 0 0 2.2 1.3l3.6.4v3.6h-9.3z"/></symbol><symbol id="twitter" viewBox="0 0 216 216"><circle cx="107.7" cy="108" r="108" fill="#ad974f"/><path fill="#231f20" d="M175.8 65a55.5 55.5 0 0 1-16.3 4.5A28.3 28.3 0 0 0 172 53.8a58.9 58.9 0 0 1-18 6.9 28.4 28.4 0 0 0-49.2 19.4 27.5 27.5 0 0 0 .8 6.5A80.6 80.6 0 0 1 47 56.9a27.9 27.9 0 0 0-3.9 14.3 28.6 28.6 0 0 0 12.7 23.7 29.4 29.4 0 0 1-12.9-3.6v.4a28.4 28.4 0 0 0 22.8 27.8 26.6 26.6 0 0 1-7.5 1 30.7 30.7 0 0 1-5.3-.5 28.3 28.3 0 0 0 26.5 19.7 56.6 56.6 0 0 1-35.3 12.2 51.7 51.7 0 0 1-6.8-.4 80.2 80.2 0 0 0 43.6 12.8c52.3 0 80.8-43.3 80.8-80.9 0-1.2 0-2.4-.1-3.6A57.1 57.1 0 0 0 175.8 65z"/></symbol><symbol id="warranty" viewBox="0 0 216 216"><g fill="#8e793e"><path d="M194.7 41.5h-.3a241.8 241.8 0 0 1-84.4-32 3.6 3.6 0 0 0-4 0 239.2 239.2 0 0 1-83.9 31.9h-.8a3.9 3.9 0 0 0-3.2 3.8v50.7a113.3 113.3 0 0 0 89.1 110.7h1.6a113.3 113.3 0 0 0 89.1-110.8V45.3a3.9 3.9 0 0 0-3.2-3.8zm-4.5 54.3c0 49-34.5 92.2-82.2 103.1-47.7-10.9-82.2-54.1-82.2-103V48.5A245 245 0 0 0 108 17.3a245 245 0 0 0 82.2 31.2z"/><path d="M107.9 37a4.1 4.1 0 0 0 1.9-.5h.1a3.8 3.8 0 0 0 1.5-5.2 4 4 0 0 0-5.3-1.5h-.1a3.7 3.7 0 0 0-1.4 5.2 3.8 3.8 0 0 0 3.3 2zm-17 .6a261.7 261.7 0 0 1-52.3 18.3 3.7 3.7 0 0 0-3 3.7v36.2a106.6 106.6 0 0 0 .8 12.6 3.9 3.9 0 0 0 3.9 3.3h.5a3.8 3.8 0 0 0 3.3-4.3 90.4 90.4 0 0 1-.8-11.6V62.7a265.6 265.6 0 0 0 50.9-18.1 3.9 3.9 0 0 0 1.9-5.2 4 4 0 0 0-5.2-1.8zm85.6 18.2a3.8 3.8 0 0 0-3.8 3.8v36.2a88.6 88.6 0 0 1-51.7 80.3 3.9 3.9 0 0 0 1.6 7.4 3.2 3.2 0 0 0 1.6-.4 97 97 0 0 0 40.7-35.2 95.7 95.7 0 0 0 15.5-52.1V59.6a3.8 3.8 0 0 0-3.9-3.8zm-69.3 125.3h-.2a3.8 3.8 0 0 0-2.7 4.7 3.7 3.7 0 0 0 3.7 2.9h1.1a3.8 3.8 0 1 0-1.9-7.4z"/><path d="M159.8 108.5a10.1 10.1 0 0 0-1.5-12.6l-4-4a2.4 2.4 0 0 1-.8-1.9l.4-5.7a10.1 10.1 0 0 0-7.2-10.5l-5.4-1.6a2.3 2.3 0 0 1-1.5-1.4l-2.3-5.2a10.3 10.3 0 0 0-11.3-5.9l-5.4 1a2.3 2.3 0 0 1-2.1-.5l-4.3-3.4a10 10 0 0 0-12.8 0l-4.3 3.4a2.3 2.3 0 0 1-2.1.5l-5.4-1a10.2 10.2 0 0 0-11.3 5.9l-2.3 5.2a2.3 2.3 0 0 1-1.5 1.4l-5.4 1.6a10.1 10.1 0 0 0-7.2 10.5l.4 5.7a2.4 2.4 0 0 1-.8 1.9l-4 4a10.1 10.1 0 0 0-1.5 12.6l3 4.9a2.3 2.3 0 0 1 .2 2l-1.7 5.4a10.3 10.3 0 0 0 4.5 12l4.8 2.8a2.6 2.6 0 0 1 1.2 1.8l1 5.5a10 10 0 0 0 9.5 8.5l5.5.3a2.3 2.3 0 0 1 1.9 1l3.4 4.4a10.2 10.2 0 0 0 8.2 4 11.1 11.1 0 0 0 4.3-.9l4.9-2.3a2.2 2.2 0 0 1 2.2 0l4.9 2.3a10.4 10.4 0 0 0 12.5-3.1l3.4-4.4a2.3 2.3 0 0 1 1.9-1l5.5-.3a10.2 10.2 0 0 0 9.6-8.5l.9-5.5a2.6 2.6 0 0 1 1.2-1.8l4.8-2.8a10.3 10.3 0 0 0 4.5-12l-1.7-5.4a2.3 2.3 0 0 1 .2-2zm-6.6-4l-2.9 4.8a10.2 10.2 0 0 0-1.1 8.5l1.8 5.4a2.6 2.6 0 0 1-1.1 2.9L145 129a10.3 10.3 0 0 0-4.8 7.1l-1 5.5a2.4 2.4 0 0 1-2.3 2.1l-5.5.3a10.2 10.2 0 0 0-7.7 4l-3.3 4.4a2.5 2.5 0 0 1-3.1.8l-5-2.3a10 10 0 0 0-8.6 0l-5 2.3a2.5 2.5 0 0 1-3.1-.8l-3.3-4.4a10.2 10.2 0 0 0-7.7-4l-5.5-.3a2.4 2.4 0 0 1-2.3-2.1l-1-5.5A10.3 10.3 0 0 0 71 129l-4.9-2.9a2.6 2.6 0 0 1-1.1-2.9l1.8-5.4a10.2 10.2 0 0 0-1.1-8.5l-2.9-4.8a2.4 2.4 0 0 1 .4-3.1l4-4a10.3 10.3 0 0 0 3-8l-.4-5.6a2.4 2.4 0 0 1 1.8-2.6l5.3-1.6a10.2 10.2 0 0 0 6.4-5.8l2.2-5.1a2.8 2.8 0 0 1 2.4-1.5h.4l5.4 1a10.1 10.1 0 0 0 8.4-2.1l4.3-3.4a2.4 2.4 0 0 1 3.2 0l4.3 3.4a10.1 10.1 0 0 0 8.4 2.1l5.4-1a2.4 2.4 0 0 1 2.8 1.4l2.2 5.1a10.2 10.2 0 0 0 6.4 5.8l5.3 1.6a2.4 2.4 0 0 1 1.8 2.6l-.4 5.6a10.3 10.3 0 0 0 3 8l4 4a2.4 2.4 0 0 1 .4 3.2z"/><path d="M118.1 88.1a3.9 3.9 0 0 0-5.3 1.4L92 126.3a3.9 3.9 0 0 0 1.5 5.3 4.1 4.1 0 0 0 1.9.5 4 4 0 0 0 3.4-2l20.7-36.8a3.8 3.8 0 0 0-1.4-5.2zm3.4 23a11.6 11.6 0 1 0 11.6 11.6 11.6 11.6 0 0 0-11.6-11.6zm0 15.5a3.9 3.9 0 1 1 3.9-3.9 4 4 0 0 1-3.9 3.9zm-27-45.3a11.6 11.6 0 1 0 11.6 11.6 11.6 11.6 0 0 0-11.6-11.6zm0 15.5a3.9 3.9 0 1 1 3.9-3.9 3.9 3.9 0 0 1-3.9 3.9z"/></g></symbol></svg>