<svg id="Layer_1" data-name="Layer 1" xmlns="http://www.w3.org/2000/svg" width="197.9" height="35.6" viewBox="0 0 197.9 35.6"><title>logo</title><path d="M71.3,35.3l-2.5-4.1c-.4-.7-10.6-17.6-23.9-17.6a17.5,17.5,0,0,0-6.5,1.3L26.7,0,0,35.3H71.3ZM34.4,29.9H28.6A37.7,37.7,0,0,1,36.7,22l5.9,7.9ZM44.9,19.1c6.7,0,12.8,6.3,16.3,10.8H50.1L42,19.5A9.2,9.2,0,0,1,44.9,19.1ZM27.5,9.7l5.9,7.9A49.9,49.9,0,0,0,21.8,29.7h-10Z" fill="#8e7a3f"/><path d="M100.6,29.7H88.7l-2.4,5.6H83L93.1,12.9h3.2l10.2,22.4h-3.4Zm-1.1-2.5-4.8-11-4.8,11Z" fill="#eaeaea"/><path d="M113.4,34.1a11,11,0,0,1-4.2-4.1,11.5,11.5,0,0,1-1.5-5.9,11.4,11.4,0,0,1,1.5-5.8,10.4,10.4,0,0,1,4.2-4.1,12.8,12.8,0,0,1,6.1-1.5,12.1,12.1,0,0,1,4.8.9,8.1,8.1,0,0,1,3.7,2.6l-2,2a8.3,8.3,0,0,0-6.3-2.7,10.1,10.1,0,0,0-4.6,1.1,8.4,8.4,0,0,0-3.1,3.1,8.2,8.2,0,0,0-1.1,4.4,8,8,0,0,0,1.1,4.4,7.7,7.7,0,0,0,3.1,3.1,9,9,0,0,0,4.6,1.1A8.6,8.6,0,0,0,126,30l2,2.1a9.9,9.9,0,0,1-3.7,2.6,12.8,12.8,0,0,1-4.8.9A12.5,12.5,0,0,1,113.4,34.1Z" fill="#eaeaea"/><path d="M134.8,33a10.2,10.2,0,0,1-2.5-7.3V12.9h3.2V25.5q0,7.2,6.3,7.2a6.3,6.3,0,0,0,4.7-1.7,7.9,7.9,0,0,0,1.7-5.5V12.9h3.1V25.7a10.2,10.2,0,0,1-2.5,7.3,10.7,10.7,0,0,1-14,0Z" fill="#eaeaea"/><path d="M161.9,15.7h-7.7V12.9h18.5v2.8H165V35.3h-3.1Z" fill="#eaeaea"/><path d="M179.9,34.1a11.3,11.3,0,0,1-4.3-4.1,11.8,11.8,0,0,1-1.5-5.9,11.4,11.4,0,0,1,1.5-5.8,10.6,10.6,0,0,1,4.3-4.1,12.3,12.3,0,0,1,6.1-1.5,12.5,12.5,0,0,1,6.1,1.5,10.4,10.4,0,0,1,4.2,4.1,11.5,11.5,0,0,1,0,11.7,11,11,0,0,1-4.2,4.1,12.5,12.5,0,0,1-6.1,1.5A12.3,12.3,0,0,1,179.9,34.1Zm10.5-2.5a7.7,7.7,0,0,0,3.1-3.1,8.1,8.1,0,0,0,1.2-4.4,8.7,8.7,0,0,0-4.3-7.5,9.3,9.3,0,0,0-4.4-1.1,9.7,9.7,0,0,0-4.5,1.1,8.4,8.4,0,0,0-3.1,3.1,8.2,8.2,0,0,0-1.1,4.4,8,8,0,0,0,1.1,4.4,7.7,7.7,0,0,0,3.1,3.1,8.6,8.6,0,0,0,4.5,1.1A8.2,8.2,0,0,0,190.4,31.6Z" fill="#eaeaea"/></svg>